<?xml version="1.0" encoding="utf-8"?>
<!-- Generator: Adobe Illustrator 27.8.1, SVG Export Plug-In . SVG Version: 6.00 Build 0)  -->
<svg version="1.1" id="Layer_1" xmlns="http://www.w3.org/2000/svg"
	xmlns:xlink="http://www.w3.org/1999/xlink" x="0px" y="0px"
	viewBox="0 0 665.4 271" style="enable-background:new 0 0 665.4 271;" xml:space="preserve">
<style type="text/css">
	.st0{fill:#FFFFFF;}
	.st1{fill:none;stroke:#FFFFFF;stroke-width:0.5;stroke-miterlimit:10;}
	.st2{fill:none;stroke:#FFFFFF;stroke-width:4;stroke-miterlimit:10;}
	.st3{fill:#D1D3D4;}
	@keyframes spin { 0% { transform: rotate(0deg); } 100% { transform: rotate(360deg); } } @keyframes spin2 { 0% { transform: rotate(0deg); } 100% { transform: rotate(-360deg); } }
</style>
<g>
	<g>
		<path class="st0" d="M306.3,69.6v13.1h51.4v38.7h-64.1v-12.8H345V95.9h-51.4V56.8h64.1v12.8H306.3z"/>
		<rect x="365.7" y="108.5" class="st0" width="12.8" height="12.8"/>
		<path class="st0" d="M447.5,70h-25.4v51.4h-13.2V70h-25.4V56.8h64.1V70z"/>
		<path class="st0" d="M468.8,69.5v13.1h51.4v12.8h-51.4v12.7h51.4v13.2h-64.6V56.7h64.6v12.8H468.8z"/>
		<path class="st0" d="M541.4,69.5v39h51.4v12.8h-64.6V56.7h64.6v12.8H541.4z"/>
		<path class="st0" d="M665.4,56.8v64.5h-12.7V95.3h-38.7v25.9h-13.2V56.8h13.2v25.7h38.7V56.8H665.4z"/>
	</g>
	<g>
		<path class="st0" d="M302.5,190.4c0.2,0.2,0.4,0.4,0.7,0.5c0.3,0.1,0.5,0.2,0.8,0.2s0.6-0.1,0.8-0.2c0.3-0.1,0.5-0.3,0.7-0.5
			c0.2-0.2,0.4-0.4,0.5-0.7c0.1-0.3,0.2-0.6,0.2-0.9c0-0.3-0.1-0.6-0.2-0.8s-0.3-0.5-0.5-0.7c-0.2-0.2-0.4-0.4-0.7-0.5
			c-0.3-0.1-0.5-0.2-0.8-0.2s-0.6,0.1-0.8,0.2c-0.3,0.1-0.5,0.3-0.7,0.5s-0.4,0.4-0.5,0.7s-0.2,0.5-0.2,0.8c0,0.3,0.1,0.6,0.2,0.9
			C302.1,190,302.3,190.2,302.5,190.4z"/>
		<path class="st0" d="M296.9,190.4c0.2,0.2,0.4,0.4,0.7,0.5c0.3,0.1,0.6,0.2,0.9,0.2c0.3,0,0.6-0.1,0.8-0.2
			c0.3-0.1,0.5-0.3,0.7-0.5c0.2-0.2,0.4-0.4,0.5-0.7c0.1-0.3,0.2-0.6,0.2-0.9c0-0.3-0.1-0.6-0.2-0.8s-0.3-0.5-0.5-0.7
			c-0.2-0.2-0.4-0.4-0.7-0.5c-0.3-0.1-0.5-0.2-0.8-0.2c-0.3,0-0.6,0.1-0.9,0.2c-0.3,0.1-0.5,0.3-0.7,0.5c-0.2,0.2-0.4,0.4-0.5,0.7
			s-0.2,0.5-0.2,0.8c0,0.3,0.1,0.6,0.2,0.9C296.6,190,296.7,190.2,296.9,190.4z"/>
		<path class="st0" d="M367.9,220.4c-0.2-0.2-0.4-0.4-0.7-0.5c-0.3-0.1-0.5-0.2-0.8-0.2c-0.3,0-0.6,0.1-0.9,0.2s-0.5,0.3-0.7,0.5
			c-0.2,0.2-0.4,0.4-0.5,0.7c-0.1,0.3-0.2,0.5-0.2,0.8c0,0.6,0.2,1.1,0.6,1.6c0.4,0.4,0.9,0.6,1.6,0.6c0.6,0,1.1-0.2,1.5-0.6
			c0.4-0.4,0.7-0.9,0.7-1.6c0-0.3-0.1-0.6-0.2-0.8C368.3,220.9,368.1,220.6,367.9,220.4z"/>
		<path class="st0" d="M372,219.8c-0.6,0-1.2,0.2-1.6,0.7s-0.6,1-0.6,1.5c0,0.6,0.2,1.1,0.6,1.6c0.4,0.4,0.9,0.6,1.6,0.6
			c0.6,0,1.1-0.2,1.5-0.6c0.4-0.4,0.6-0.9,0.6-1.6c0-0.6-0.2-1.1-0.6-1.5S372.6,219.8,372,219.8z"/>
		<path class="st0" d="M393,190.4c0.2,0.2,0.4,0.4,0.7,0.5c0.3,0.1,0.6,0.2,0.9,0.2c0.3,0,0.6-0.1,0.8-0.2c0.3-0.1,0.5-0.3,0.7-0.5
			c0.2-0.2,0.3-0.4,0.5-0.7c0.1-0.3,0.2-0.6,0.2-0.9c0-0.6-0.2-1.1-0.6-1.5s-0.9-0.7-1.5-0.7c-0.6,0-1.2,0.2-1.6,0.7
			c-0.4,0.4-0.6,1-0.6,1.5c0,0.3,0.1,0.6,0.2,0.9C392.7,190,392.8,190.2,393,190.4z"/>
		<path class="st0" d="M427,196.8c-0.6-0.5-1.3-0.9-2.1-1.1c-0.8-0.2-1.7-0.4-2.5-0.4c-0.8,0-1.6,0.1-2.4,0.3
			c-0.8,0.2-1.5,0.5-2.1,1c-0.6,0.5-1.1,1.1-1.5,2c-0.4,0.8-0.6,1.8-0.6,3.1v9h-17h-0.3h-2v-15.1h-3.6v15.1H376h-0.3h-2v-15.1h-3.6
			v15.1h-59.9H310h-2v-15.1h-7.2c-0.9,0-1.7,0.1-2.5,0.4s-1.5,0.7-2,1.2c-0.6,0.5-1,1.2-1.4,2c-0.3,0.8-0.5,1.7-0.5,2.8v6
			c0,2,0.6,3.6,1.7,4.7c1.1,1.1,2.8,1.7,5.1,1.7h1.3l1.8-2.4v2.4h5.6h0.2h65.5h0.3h22.4h0.3h17.1c0.3,1.5,1.1,2.7,2.3,3.5
			c1.2,0.8,2.6,1.2,4.4,1.2c0.9,0,1.7-0.1,2.5-0.3c0.8-0.2,1.5-0.6,2.1-1c0.6-0.5,1.1-1.1,1.5-1.9c0.4-0.8,0.6-1.8,0.6-3v-11
			c0-1.1-0.2-2.1-0.6-2.9C428.1,198,427.6,197.3,427,196.8z M304.3,210.7h-3.4c-0.6,0-1.1-0.1-1.4-0.2c-0.4-0.1-0.7-0.3-0.9-0.6
			c-0.2-0.2-0.3-0.5-0.4-0.9c-0.1-0.3-0.1-0.7-0.1-1.1v-6.2c0-1,0.2-1.7,0.7-2.1c0.5-0.4,1.1-0.6,1.9-0.6h3.6V210.7z M425.5,212.7
			c0,0.6-0.1,1.1-0.3,1.4c-0.2,0.4-0.4,0.6-0.7,0.8c-0.3,0.2-0.6,0.3-1,0.4c-0.4,0.1-0.8,0.1-1.2,0.1c-0.4,0-0.8,0-1.2-0.1
			c-0.4-0.1-0.7-0.2-1-0.4c-0.3-0.2-0.5-0.5-0.7-0.8c-0.2-0.4-0.3-0.8-0.3-1.4v-11c0-0.6,0.1-1,0.2-1.4c0.2-0.4,0.4-0.6,0.7-0.8
			c0.3-0.2,0.6-0.3,1-0.4c0.4-0.1,0.8-0.1,1.2-0.1c0.5,0,0.9,0,1.3,0.1c0.4,0.1,0.7,0.2,1,0.4c0.3,0.2,0.5,0.5,0.7,0.8
			c0.2,0.4,0.2,0.8,0.2,1.4V212.7z"/>
		<path class="st0" d="M440.3,189.7h-2.1c-0.5,0-1-0.1-1.3-0.4c-0.3-0.2-0.5-0.6-0.5-1.2c0-1,0.6-1.5,1.8-1.5h1.1v-1.5h-1.6
			c-0.5,0-0.9,0.1-1.3,0.2c-0.4,0.2-0.7,0.4-0.9,0.6c-0.2,0.3-0.4,0.6-0.6,0.9c-0.1,0.4-0.2,0.7-0.2,1.1c0,0.3,0,0.5,0.1,0.8
			s0.2,0.5,0.3,0.8h-1.7v1.5h6.8V189.7z"/>
		<path class="st0" d="M458.9,207.9c0,1.1-0.2,1.8-0.7,2.2c-0.5,0.4-1.2,0.6-2.2,0.6h-1.1h-0.3h-2V188H449v22.7h-4.3l-5.9-15.1h-3.9
			l5.9,15.1h-6.6v3.6h20.3h0.3h1.2c1.1,0,2.1-0.2,2.9-0.5c0.8-0.3,1.5-0.7,2-1.3c0.5-0.5,0.9-1.2,1.2-1.9c0.2-0.8,0.4-1.6,0.4-2.4
			V188h-3.6V207.9z"/>
		<polygon class="st0" points="467.7,216.3 471.4,214.3 471.4,188 467.7,188 		"/>
		<path class="st0" d="M486.2,190.4c0.2,0.2,0.4,0.4,0.7,0.5c0.3,0.1,0.6,0.2,0.9,0.2c0.3,0,0.6-0.1,0.8-0.2
			c0.3-0.1,0.5-0.3,0.7-0.5c0.2-0.2,0.4-0.4,0.5-0.7c0.1-0.3,0.2-0.6,0.2-0.9c0-0.3-0.1-0.6-0.2-0.8s-0.3-0.5-0.5-0.7
			c-0.2-0.2-0.4-0.4-0.7-0.5c-0.3-0.1-0.5-0.2-0.8-0.2c-0.3,0-0.6,0.1-0.9,0.2c-0.3,0.1-0.5,0.3-0.7,0.5c-0.2,0.2-0.4,0.4-0.5,0.7
			s-0.2,0.5-0.2,0.8c0,0.3,0.1,0.6,0.2,0.9C485.8,190,486,190.2,486.2,190.4z"/>
		<path class="st0" d="M491.7,190.4c0.2,0.2,0.4,0.4,0.7,0.5c0.3,0.1,0.5,0.2,0.8,0.2s0.6-0.1,0.8-0.2c0.3-0.1,0.5-0.3,0.7-0.5
			c0.2-0.2,0.4-0.4,0.5-0.7c0.1-0.3,0.2-0.6,0.2-0.9c0-0.3-0.1-0.6-0.2-0.8s-0.3-0.5-0.5-0.7c-0.2-0.2-0.4-0.4-0.7-0.5
			c-0.3-0.1-0.5-0.2-0.8-0.2s-0.6,0.1-0.8,0.2c-0.3,0.1-0.5,0.3-0.7,0.5s-0.4,0.4-0.5,0.7c-0.1,0.3-0.2,0.5-0.2,0.8
			c0,0.3,0.1,0.6,0.2,0.9C491.4,190,491.5,190.2,491.7,190.4z"/>
		<path class="st0" d="M594.8,190.4c0.2,0.2,0.4,0.4,0.7,0.5c0.3,0.1,0.5,0.2,0.8,0.2c0.3,0,0.6-0.1,0.9-0.2
			c0.3-0.1,0.5-0.3,0.7-0.5s0.4-0.4,0.5-0.7c0.1-0.3,0.2-0.6,0.2-0.9c0-0.3-0.1-0.6-0.2-0.8c-0.1-0.3-0.3-0.5-0.5-0.7
			s-0.4-0.4-0.7-0.5c-0.3-0.1-0.6-0.2-0.9-0.2c-0.6,0-1.1,0.2-1.5,0.7c-0.4,0.4-0.6,1-0.6,1.5c0,0.3,0.1,0.6,0.2,0.9
			C594.5,190,594.6,190.2,594.8,190.4z"/>
		<path class="st0" d="M630.3,186.7c-0.6,0-1.2,0.2-1.6,0.7c-0.4,0.4-0.6,1-0.6,1.5c0,0.3,0.1,0.6,0.2,0.9c0.1,0.3,0.3,0.5,0.5,0.7
			s0.4,0.4,0.7,0.5c0.3,0.1,0.6,0.2,0.9,0.2c0.3,0,0.6-0.1,0.8-0.2c0.3-0.1,0.5-0.3,0.7-0.5c0.2-0.2,0.3-0.4,0.5-0.7
			c0.1-0.3,0.2-0.6,0.2-0.9c0-0.6-0.2-1.1-0.6-1.5C631.4,186.9,630.9,186.7,630.3,186.7z"/>
		<path class="st0" d="M628.5,208.2c0,1.7-0.9,2.5-2.6,2.5h-17.1h-0.3h-2v-9.6c0-0.8-0.2-1.6-0.5-2.3c-0.3-0.7-0.8-1.3-1.3-1.8
			c-0.5-0.5-1.2-0.9-1.9-1.2c-0.7-0.3-1.4-0.4-2.2-0.4c-0.8,0-1.5,0.1-2.3,0.3l-8.5,3.1V188h-3.6v22.7h-14h-0.2h-2v-9
			c0-1.1-0.2-2.1-0.6-2.9c-0.4-0.8-0.9-1.5-1.5-2c-0.6-0.5-1.3-0.9-2.1-1.1c-0.8-0.2-1.7-0.4-2.5-0.4c-0.8,0-1.6,0.1-2.4,0.3
			c-0.8,0.2-1.5,0.5-2.1,1c-0.6,0.5-1.1,1.1-1.5,2c-0.4,0.8-0.6,1.8-0.6,3.1v9h-57.2h-0.2h-2v-15.1h-7.2c-0.9,0-1.7,0.1-2.5,0.4
			s-1.5,0.7-2,1.2c-0.6,0.5-1,1.2-1.4,2c-0.3,0.8-0.5,1.7-0.5,2.8v6c0,2,0.6,3.6,1.7,4.7c1.1,1.1,2.8,1.7,5.1,1.7h1.3l1.8-2.4v2.4
			h5.6h0.2h57.3c0.3,1.5,1.1,2.7,2.3,3.5c1.2,0.8,2.6,1.2,4.4,1.2c0.8,0,1.5-0.1,2.2-0.2c0.7-0.2,1.4-0.4,2-0.8
			c0.6-0.4,1.1-0.8,1.5-1.4s0.7-1.3,0.9-2.2h2.2h0.2h14v3.5l3.6-1.9v-1.6h18.5h0.3h16.8c0.9,0,1.7-0.1,2.5-0.4
			c0.8-0.2,1.5-0.6,2.1-1.1c0.6-0.5,1.1-1.2,1.4-1.9c0.3-0.8,0.5-1.7,0.5-2.8v-12.5h-3.6V208.2z M493.6,210.7h-3.4
			c-0.6,0-1.1-0.1-1.4-0.2c-0.4-0.1-0.7-0.3-0.9-0.6c-0.2-0.2-0.3-0.5-0.4-0.9c-0.1-0.3-0.1-0.7-0.1-1.1v-6.2c0-1,0.2-1.7,0.7-2.1
			c0.5-0.4,1.1-0.6,1.9-0.6h3.6V210.7z M566.5,212.7c0,0.6-0.1,1.1-0.3,1.4c-0.2,0.4-0.4,0.6-0.7,0.8c-0.3,0.2-0.6,0.3-1,0.4
			c-0.4,0.1-0.8,0.1-1.2,0.1c-0.4,0-0.8,0-1.2-0.1c-0.4-0.1-0.7-0.2-1-0.4c-0.3-0.2-0.5-0.5-0.7-0.8c-0.2-0.4-0.3-0.8-0.3-1.4v-11
			c0-0.6,0.1-1,0.2-1.4c0.2-0.4,0.4-0.6,0.7-0.8c0.3-0.2,0.6-0.3,1-0.4c0.4-0.1,0.8-0.1,1.2-0.1c0.5,0,0.9,0,1.3,0.1
			c0.4,0.1,0.7,0.2,1,0.4c0.3,0.2,0.5,0.5,0.7,0.8c0.2,0.4,0.2,0.8,0.2,1.4V212.7z M602.8,210.7h-12.9v-6.2c0-0.4,0-0.8,0.1-1.1
			c0.1-0.3,0.2-0.5,0.3-0.7c0.2-0.2,0.4-0.3,0.6-0.5c0.3-0.1,0.6-0.3,1-0.4l6.9-2.5c0.3-0.1,0.6-0.2,0.9-0.3
			c0.3-0.1,0.6-0.1,0.9-0.1c0.6,0,1.1,0.2,1.5,0.6c0.4,0.4,0.6,1,0.6,1.8V210.7z"/>
		<path class="st0" d="M643.2,189.7h-2.1c-0.5,0-1-0.1-1.3-0.4c-0.3-0.2-0.5-0.6-0.5-1.2c0-1,0.6-1.5,1.8-1.5h1.1v-1.5h-1.6
			c-0.5,0-0.9,0.1-1.3,0.2c-0.4,0.2-0.7,0.4-0.9,0.6c-0.2,0.3-0.4,0.6-0.6,0.9c-0.1,0.4-0.2,0.7-0.2,1.1c0,0.3,0,0.5,0.1,0.8
			c0.1,0.2,0.2,0.5,0.3,0.8h-1.7v1.5h6.8V189.7z"/>
		<path class="st0" d="M661.8,207.9c0,1.1-0.2,1.8-0.7,2.2c-0.5,0.4-1.2,0.6-2.2,0.6h-1.1h-0.3h-2V188H652v22.7h-4.3l-5.9-15.1h-3.9
			l5.9,15.1h-6.6v3.6h20.3h0.3h1.2c1.1,0,2.1-0.2,2.9-0.5c0.8-0.3,1.5-0.7,2-1.3c0.5-0.5,0.9-1.2,1.2-1.9c0.2-0.8,0.4-1.6,0.4-2.4
			V188h-3.6V207.9z"/>
		<path class="st0" d="M302.9,142.8c0.2,0.2,0.4,0.4,0.7,0.5c0.3,0.1,0.5,0.2,0.8,0.2s0.6-0.1,0.8-0.2c0.3-0.1,0.5-0.3,0.7-0.5
			c0.2-0.2,0.4-0.4,0.5-0.7c0.1-0.3,0.2-0.6,0.2-0.9c0-0.3-0.1-0.6-0.2-0.8c-0.1-0.3-0.3-0.5-0.5-0.7c-0.2-0.2-0.4-0.4-0.7-0.5
			c-0.3-0.1-0.5-0.2-0.8-0.2s-0.6,0.1-0.8,0.2c-0.3,0.1-0.5,0.3-0.7,0.5c-0.2,0.2-0.4,0.4-0.5,0.7c-0.1,0.3-0.2,0.5-0.2,0.8
			c0,0.3,0.1,0.6,0.2,0.9C302.6,142.3,302.7,142.6,302.9,142.8z"/>
		<path class="st0" d="M297.4,142.8c0.2,0.2,0.4,0.4,0.7,0.5c0.3,0.1,0.6,0.2,0.9,0.2c0.3,0,0.6-0.1,0.8-0.2
			c0.3-0.1,0.5-0.3,0.7-0.5c0.2-0.2,0.4-0.4,0.5-0.7c0.1-0.3,0.2-0.6,0.2-0.9c0-0.3-0.1-0.6-0.2-0.8c-0.1-0.3-0.3-0.5-0.5-0.7
			c-0.2-0.2-0.4-0.4-0.7-0.5c-0.3-0.1-0.5-0.2-0.8-0.2c-0.3,0-0.6,0.1-0.9,0.2c-0.3,0.1-0.5,0.3-0.7,0.5c-0.2,0.2-0.4,0.4-0.5,0.7
			c-0.1,0.3-0.2,0.5-0.2,0.8c0,0.3,0.1,0.6,0.2,0.9C297,142.3,297.2,142.6,297.4,142.8z"/>
		<path class="st0" d="M404.2,142.8c0.2,0.2,0.4,0.4,0.7,0.5c0.3,0.1,0.6,0.2,0.9,0.2c0.3,0,0.6-0.1,0.8-0.2
			c0.3-0.1,0.5-0.3,0.7-0.5s0.4-0.4,0.5-0.7c0.1-0.3,0.2-0.6,0.1-0.9c0-0.6-0.2-1.1-0.6-1.5c-0.4-0.4-0.9-0.7-1.5-0.7
			c-0.3,0-0.6,0.1-0.9,0.2c-0.3,0.1-0.5,0.3-0.7,0.5s-0.4,0.4-0.5,0.7c-0.1,0.3-0.2,0.5-0.2,0.8c0,0.3,0.1,0.6,0.2,0.9
			C403.8,142.3,404,142.6,404.2,142.8z"/>
		<path class="st0" d="M433.2,142.8c0.2,0.2,0.4,0.4,0.7,0.5c0.3,0.1,0.6,0.2,0.9,0.2c0.3,0,0.6-0.1,0.8-0.2
			c0.3-0.1,0.5-0.3,0.7-0.5c0.2-0.2,0.3-0.4,0.5-0.7c0.1-0.3,0.2-0.6,0.2-0.9c0-0.6-0.2-1.1-0.6-1.5c-0.4-0.4-0.9-0.7-1.5-0.7
			c-0.6,0-1.2,0.2-1.6,0.7c-0.4,0.4-0.6,1-0.6,1.5c0,0.3,0.1,0.6,0.2,0.9C432.9,142.3,433.1,142.6,433.2,142.8z"/>
		<path class="st0" d="M427.7,142.8c0.2,0.2,0.4,0.4,0.7,0.5c0.3,0.1,0.6,0.2,0.9,0.2c0.3,0,0.6-0.1,0.8-0.2
			c0.3-0.1,0.5-0.3,0.7-0.5s0.4-0.4,0.5-0.7c0.1-0.3,0.2-0.6,0.2-0.9c0-0.3-0.1-0.6-0.2-0.8c-0.1-0.3-0.3-0.5-0.5-0.7
			s-0.4-0.4-0.7-0.5c-0.3-0.1-0.5-0.2-0.8-0.2c-0.3,0-0.6,0.1-0.9,0.2c-0.3,0.1-0.5,0.3-0.7,0.5c-0.2,0.2-0.4,0.4-0.5,0.7
			c-0.1,0.3-0.2,0.5-0.2,0.8c0,0.3,0.1,0.6,0.2,0.9C427.3,142.3,427.5,142.6,427.7,142.8z"/>
		<path class="st0" d="M472.6,160.3c0,1.1-0.2,1.8-0.7,2.2c-0.5,0.4-1.2,0.6-2.2,0.6h-1.2h-0.2h-2v-9c0-1.1-0.2-2.1-0.6-2.9
			c-0.4-0.8-0.9-1.5-1.5-2c-0.6-0.5-1.3-0.9-2.1-1.1c-0.8-0.2-1.7-0.4-2.5-0.4c-0.8,0-1.6,0.1-2.4,0.3c-0.8,0.2-1.5,0.5-2.1,1
			c-0.6,0.5-1.1,1.1-1.5,2c-0.4,0.8-0.6,1.8-0.6,3.1v9h-14h-0.3h-2v-15.1H433V163h-16.8H416h-2v-8.9c0-0.9-0.1-1.7-0.4-2.5
			c-0.3-0.8-0.7-1.4-1.2-2c-0.5-0.6-1.2-1-2-1.3c-0.8-0.3-1.7-0.5-2.8-0.5h-7.1v3.6h7.2c0.8,0,1.5,0.2,2,0.6
			c0.5,0.4,0.7,1.1,0.7,2.1v8.9h-13.8h-0.3h-2v-9.6c0-0.8-0.2-1.6-0.5-2.3c-0.3-0.7-0.8-1.3-1.3-1.8c-0.5-0.5-1.2-0.9-1.9-1.2
			c-0.7-0.3-1.4-0.4-2.2-0.4c-0.7,0-1.5,0.1-2.2,0.3l-8.6,3.1v-3.2h-3.6V163h-4h-0.3h-2v-9.6c0-0.8-0.2-1.6-0.5-2.3
			c-0.3-0.7-0.8-1.3-1.3-1.8c-0.5-0.5-1.2-0.9-1.9-1.2c-0.7-0.3-1.4-0.4-2.2-0.4c-0.7,0-1.5,0.1-2.2,0.3l-8.6,3.1v-3.2h-3.6V163
			h-37.2h-0.2h-2v-15.1h-7.2c-0.9,0-1.7,0.1-2.5,0.4c-0.8,0.3-1.5,0.7-2,1.2c-0.6,0.5-1,1.2-1.4,2c-0.3,0.8-0.5,1.7-0.5,2.8v6
			c0,2,0.6,3.6,1.7,4.7c1.1,1.1,2.8,1.7,5.1,1.7h1.3l1.8-2.4v2.4h5.6h0.2h37.1v3.5l3.6-1.9v-1.6h18.5h0.3h3.9v3.5l3.6-1.9v-1.6h18.5
			h0.3H416h0.3h22.4h0.3H453c0.3,1.5,1.1,2.7,2.3,3.5c1.2,0.8,2.6,1.2,4.4,1.2c0.8,0,1.5-0.1,2.2-0.2c0.7-0.2,1.4-0.4,2-0.8
			c0.6-0.4,1.1-0.8,1.5-1.4c0.4-0.6,0.7-1.3,0.9-2.2h2.2h0.2h1.3c1.1,0,2.1-0.2,2.9-0.5c0.8-0.3,1.5-0.7,2-1.3
			c0.5-0.5,0.9-1.2,1.2-1.9c0.2-0.8,0.4-1.6,0.4-2.4v-20.2h-3.6V160.3z M304.8,163h-3.4c-0.6,0-1.1-0.1-1.4-0.2
			c-0.4-0.1-0.7-0.3-0.9-0.6c-0.2-0.2-0.3-0.5-0.4-0.9c-0.1-0.3-0.1-0.7-0.1-1.1v-6.2c0-1,0.2-1.7,0.7-2.1c0.5-0.4,1.1-0.6,1.9-0.6
			h3.6V163z M364.4,163h-13v-6.2c0-0.4,0-0.8,0.1-1.1c0.1-0.3,0.2-0.5,0.3-0.7c0.2-0.2,0.4-0.3,0.6-0.5c0.3-0.1,0.6-0.3,1-0.4
			l6.9-2.5c0.3-0.1,0.6-0.2,0.9-0.3c0.3-0.1,0.6-0.1,0.9-0.1c0.6,0,1.1,0.2,1.5,0.6c0.4,0.4,0.6,1,0.6,1.8V163z M390.7,163h-13v-6.2
			c0-0.4,0-0.8,0.1-1.1c0.1-0.3,0.2-0.5,0.3-0.7c0.2-0.2,0.4-0.3,0.6-0.5c0.3-0.1,0.6-0.3,1-0.4l6.9-2.5c0.3-0.1,0.6-0.2,0.9-0.3
			c0.3-0.1,0.6-0.1,0.9-0.1c0.6,0,1.1,0.2,1.5,0.6c0.4,0.4,0.6,1,0.6,1.8V163z M462.7,165c0,0.6-0.1,1.1-0.3,1.4
			c-0.2,0.4-0.4,0.6-0.7,0.8c-0.3,0.2-0.6,0.3-1,0.4s-0.8,0.1-1.2,0.1c-0.4,0-0.8,0-1.2-0.1c-0.4-0.1-0.7-0.2-1-0.4
			c-0.3-0.2-0.5-0.5-0.7-0.8c-0.2-0.4-0.3-0.8-0.3-1.4v-11c0-0.6,0.1-1,0.2-1.4c0.2-0.4,0.4-0.6,0.7-0.8c0.3-0.2,0.6-0.3,1-0.4
			c0.4-0.1,0.8-0.1,1.2-0.1c0.5,0,0.9,0,1.3,0.1c0.4,0.1,0.7,0.2,1,0.4c0.3,0.2,0.5,0.5,0.7,0.8c0.2,0.4,0.2,0.8,0.2,1.4V165z"/>
		<polygon class="st0" points="481.5,168.7 485.1,166.6 485.1,140.3 481.5,140.3 		"/>
		<path class="st0" d="M508,142.8c0.2,0.2,0.4,0.4,0.7,0.5c0.3,0.1,0.6,0.2,0.9,0.2c0.3,0,0.6-0.1,0.8-0.2c0.3-0.1,0.5-0.3,0.7-0.5
			s0.3-0.4,0.5-0.7c0.1-0.3,0.2-0.6,0.2-0.9c0-0.3-0.1-0.6-0.2-0.8c-0.1-0.3-0.3-0.5-0.5-0.7s-0.4-0.4-0.7-0.5
			c-0.3-0.1-0.5-0.2-0.8-0.2c-0.3,0-0.6,0.1-0.9,0.2c-0.3,0.1-0.5,0.3-0.7,0.5c-0.2,0.2-0.4,0.4-0.5,0.7c-0.1,0.3-0.2,0.5-0.2,0.8
			c0,0.3,0.1,0.6,0.2,0.9C507.6,142.3,507.8,142.6,508,142.8z"/>
		<path class="st0" d="M513.5,142.8c0.2,0.2,0.4,0.4,0.7,0.5c0.3,0.1,0.5,0.2,0.8,0.2s0.6-0.1,0.8-0.2c0.3-0.1,0.5-0.3,0.7-0.5
			s0.4-0.4,0.5-0.7c0.1-0.3,0.2-0.6,0.2-0.9c0-0.3-0.1-0.6-0.2-0.8c-0.1-0.3-0.3-0.5-0.5-0.7s-0.4-0.4-0.7-0.5
			c-0.3-0.1-0.5-0.2-0.8-0.2c-0.6,0-1.1,0.2-1.5,0.7c-0.4,0.4-0.6,1-0.6,1.5c0,0.3,0.1,0.6,0.2,0.9
			C513.2,142.3,513.4,142.6,513.5,142.8z"/>
		<path class="st0" d="M523.4,160.5c0,1.7-0.9,2.5-2.6,2.5h-17.1c-1,0-1.7-0.2-2.1-0.7c-0.4-0.5-0.6-1.2-0.6-2.1v-8l-3.7,2.4v5.4
			c0,2.2,0.6,3.8,1.7,4.9c1.1,1.1,2.8,1.6,4.8,1.6h16.6c1.1,0,2.1-0.2,2.9-0.5c0.8-0.3,1.5-0.8,2-1.3s0.9-1.2,1.2-2
			c0.2-0.8,0.4-1.6,0.4-2.5v-12.5h-3.6V160.5z"/>
		<path class="st0" d="M575.9,172.8c-0.2-0.2-0.4-0.4-0.7-0.5c-0.3-0.1-0.5-0.2-0.8-0.2c-0.3,0-0.6,0.1-0.9,0.2
			c-0.3,0.1-0.5,0.3-0.7,0.5c-0.2,0.2-0.4,0.4-0.5,0.7c-0.1,0.3-0.2,0.5-0.2,0.8c0,0.6,0.2,1.1,0.6,1.6c0.4,0.4,0.9,0.6,1.6,0.6
			c0.6,0,1.1-0.2,1.5-0.6c0.4-0.4,0.7-0.9,0.7-1.6c0-0.3-0.1-0.6-0.2-0.8C576.3,173.2,576.1,173,575.9,172.8z"/>
		<path class="st0" d="M579.9,172.1c-0.6,0-1.2,0.2-1.6,0.7c-0.4,0.4-0.6,1-0.6,1.5c0,0.6,0.2,1.1,0.6,1.6c0.4,0.4,0.9,0.6,1.6,0.6
			c0.6,0,1.1-0.2,1.5-0.6c0.4-0.4,0.6-0.9,0.6-1.6c0-0.6-0.2-1.1-0.6-1.5C581,172.3,580.5,172.1,579.9,172.1z"/>
		<path class="st0" d="M591,142.8c0.2,0.2,0.4,0.4,0.7,0.5c0.3,0.1,0.6,0.2,0.9,0.2c0.3,0,0.6-0.1,0.8-0.2c0.3-0.1,0.5-0.3,0.7-0.5
			c0.2-0.2,0.3-0.4,0.5-0.7c0.1-0.3,0.2-0.6,0.2-0.9c0-0.6-0.2-1.1-0.6-1.5c-0.4-0.4-0.9-0.7-1.5-0.7c-0.6,0-1.2,0.2-1.6,0.7
			c-0.4,0.4-0.6,1-0.6,1.5c0,0.3,0.1,0.6,0.2,0.9C590.6,142.3,590.8,142.6,591,142.8z"/>
		<path class="st0" d="M613,142.8c0.2,0.2,0.4,0.4,0.7,0.5c0.3,0.1,0.6,0.2,0.9,0.2c0.3,0,0.6-0.1,0.8-0.2c0.3-0.1,0.5-0.3,0.7-0.5
			s0.3-0.4,0.5-0.7c0.1-0.3,0.2-0.6,0.2-0.9c0-0.6-0.2-1.1-0.6-1.5c-0.4-0.4-0.9-0.7-1.5-0.7c-0.3,0-0.6,0.1-0.9,0.2
			c-0.3,0.1-0.5,0.3-0.7,0.5c-0.2,0.2-0.4,0.4-0.5,0.7c-0.1,0.3-0.2,0.5-0.2,0.8c0,0.3,0.1,0.6,0.2,0.9
			C612.6,142.3,612.8,142.6,613,142.8z"/>
		<path class="st0" d="M618.5,142.8c0.2,0.2,0.4,0.4,0.7,0.5c0.3,0.1,0.6,0.2,0.9,0.2s0.6-0.1,0.8-0.2c0.3-0.1,0.5-0.3,0.7-0.5
			s0.4-0.4,0.5-0.7c0.1-0.3,0.2-0.6,0.2-0.9c0-0.3-0.1-0.6-0.2-0.8c-0.1-0.3-0.3-0.5-0.5-0.7s-0.4-0.4-0.7-0.5
			c-0.3-0.1-0.5-0.2-0.8-0.2s-0.6,0.1-0.9,0.2c-0.3,0.1-0.5,0.3-0.7,0.5s-0.4,0.4-0.5,0.7c-0.1,0.3-0.2,0.5-0.2,0.8
			c0,0.3,0.1,0.6,0.2,0.9C618.2,142.3,618.3,142.6,618.5,142.8z"/>
		<path class="st0" d="M643.3,142.8c0.2,0.2,0.4,0.4,0.7,0.5c0.3,0.1,0.6,0.2,0.9,0.2c0.3,0,0.6-0.1,0.8-0.2
			c0.3-0.1,0.5-0.3,0.7-0.5c0.2-0.2,0.3-0.4,0.5-0.7c0.1-0.3,0.2-0.6,0.2-0.9c0-0.6-0.2-1.1-0.6-1.5c-0.4-0.4-0.9-0.7-1.5-0.7
			c-0.6,0-1.2,0.2-1.6,0.7c-0.4,0.4-0.6,1-0.6,1.5c0,0.3,0.1,0.6,0.2,0.9C643,142.3,643.1,142.6,643.3,142.8z"/>
		<path class="st0" d="M637.7,142.8c0.2,0.2,0.4,0.4,0.7,0.5c0.3,0.1,0.6,0.2,0.9,0.2c0.3,0,0.6-0.1,0.8-0.2
			c0.3-0.1,0.5-0.3,0.7-0.5s0.4-0.4,0.5-0.7c0.1-0.3,0.2-0.6,0.2-0.9c0-0.3-0.1-0.6-0.2-0.8c-0.1-0.3-0.3-0.5-0.5-0.7
			s-0.4-0.4-0.7-0.5c-0.3-0.1-0.5-0.2-0.8-0.2c-0.3,0-0.6,0.1-0.9,0.2c-0.3,0.1-0.5,0.3-0.7,0.5c-0.2,0.2-0.4,0.4-0.5,0.7
			c-0.1,0.3-0.2,0.5-0.2,0.8c0,0.3,0.1,0.6,0.2,0.9C637.4,142.3,637.5,142.6,637.7,142.8z"/>
		<path class="st0" d="M653,160.3c0,1.1-0.2,1.8-0.7,2.2c-0.5,0.4-1.2,0.6-2.2,0.6h-1.1h-0.3h-2v-15.1h-3.6V163h-6.8H626h-2v-15.1
			h-7.3c-0.9,0-1.8,0.1-2.6,0.4c-0.8,0.3-1.4,0.7-2,1.2c-0.6,0.5-1,1.2-1.3,2c-0.3,0.8-0.4,1.7-0.4,2.7v8.8h-13.9h-0.3h-2v-15.1
			h-3.6V163H584h-0.3h-2v-15.1h-3.6V163h-40h-0.2c-0.4,0-0.7-0.1-1-0.2c-0.3-0.2-0.5-0.3-0.6-0.6c-0.1-0.2-0.2-0.5-0.3-0.8
			c-0.1-0.3-0.1-0.5-0.1-0.7v-20.4h-3.7v20.6c0,0.9,0.1,1.6,0.4,2.4c0.3,0.7,0.7,1.3,1.2,1.8c0.5,0.5,1.1,0.9,1.8,1.2
			c0.7,0.3,1.4,0.4,2.2,0.4h0.2h45.6h0.3h12.4h0.3H626h10.2h12.4h0.3h1.2c1.1,0,2.1-0.2,2.9-0.5c0.8-0.3,1.5-0.7,2-1.3
			c0.5-0.5,0.9-1.2,1.2-1.9c0.2-0.8,0.4-1.6,0.4-2.4v-20.2H653V160.3z M620.4,163h-6.2v-8.8c0-0.6,0.1-1,0.2-1.3
			c0.1-0.3,0.3-0.6,0.5-0.8c0.2-0.2,0.5-0.4,0.8-0.4c0.3-0.1,0.7-0.1,1-0.1h3.6V163z"/>
		<polygon class="st0" points="661.8,140.3 661.8,168.7 665.4,166.6 665.4,140.3 		"/>
	</g>
</g>
<g style="transform-origin: center; transform-box: fill-box; animation: spin 3s linear infinite;">
	<path class="st1" d="M135.4,3C208,3,266.8,61.8,266.8,134.4"/>
	<path class="st2" d="M4,134.4C4,61.8,62.8,3,135.4,3"/>
	<path class="st1" d="M135.4,265.8C62.8,265.8,4,207,4,134.4"/>
	<path class="st2" d="M266.8,134.4c0,72.6-58.8,131.4-131.4,131.4"/>
</g>
<g style="transform-origin: center; transform-box: fill-box; animation: spin2 2s linear infinite;">
	<path class="st1" d="M213.2,51.9c45.6,42.9,47.7,114.7,4.7,160.3"/>
	<path class="st2" d="M52.9,56.6C95.9,11.1,167.6,9,213.2,51.9"/>
	<path class="st1" d="M57.6,216.9C12.1,174,10,102.2,52.9,56.6"/>
	<path class="st2" d="M217.9,212.2c-42.9,45.6-114.7,47.7-160.3,4.7"/>
</g>
<g>
	<polygon class="st0" points="152.1,45.8 76.4,90.8 118.3,115.8 194.4,71.5 	"/>
	<polygon class="st0" points="152.1,153 76.4,198 118.3,223 194.4,178.7 	"/>
	<polygon class="st3" points="76.4,90.8 76.4,140.5 118.7,165.2 118.3,115.8 	"/>
	<polygon class="st3" points="152.1,103.3 152.1,153 194.4,178.7 194.1,128.3 	"/>
</g>
</svg>